<svg width="50" height="50" viewBox="0 0 50 50" fill="none" xmlns="http://www.w3.org/2000/svg">
<circle cx="25" cy="25" r="25" fill="white"/>
<path d="M24.1698 18.1631C20.1497 18.1631 16.9071 21.2156 16.9071 25.0001C16.9071 28.7845 20.1497 31.8371 24.1698 31.8371C28.1899 31.8371 31.4325 28.7845 31.4325 25.0001C31.4325 21.2156 28.1899 18.1631 24.1698 18.1631ZM24.1698 29.445C21.5719 29.445 19.4481 27.4516 19.4481 25.0001C19.4481 22.5485 21.5656 20.5551 24.1698 20.5551C26.774 20.5551 28.8915 22.5485 28.8915 25.0001C28.8915 27.4516 26.7677 29.445 24.1698 29.445V29.445ZM33.4236 17.8834C33.4236 18.77 32.6651 19.4781 31.7296 19.4781C30.7878 19.4781 30.0356 18.7641 30.0356 17.8834C30.0356 17.0028 30.7941 16.2887 31.7296 16.2887C32.6651 16.2887 33.4236 17.0028 33.4236 17.8834ZM38.2338 19.5019C38.1263 17.3657 37.608 15.4735 35.9456 13.9145C34.2896 12.3555 32.2795 11.8676 30.0103 11.7605C27.6716 11.6355 20.6617 11.6355 18.323 11.7605C16.0601 11.8616 14.0501 12.3496 12.3877 13.9086C10.7253 15.4676 10.2133 17.3598 10.0996 19.496C9.96682 21.6976 9.96682 28.2966 10.0996 30.4982C10.207 32.6344 10.7253 34.5267 12.3877 36.0857C14.0501 37.6447 16.0538 38.1326 18.323 38.2397C20.6617 38.3647 27.6716 38.3647 30.0103 38.2397C32.2795 38.1385 34.2896 37.6506 35.9456 36.0857C37.6017 34.5267 38.12 32.6344 38.2338 30.4982C38.3665 28.2966 38.3665 21.7036 38.2338 19.5019V19.5019ZM35.2124 32.8605C34.7194 34.0268 33.7649 34.9253 32.5197 35.3954C30.655 36.0916 26.2304 35.9309 24.1698 35.9309C22.1092 35.9309 17.6783 36.0857 15.8199 35.3954C14.5811 34.9313 13.6266 34.0328 13.1273 32.8605C12.3877 31.1052 12.5584 26.9399 12.5584 25.0001C12.5584 23.0603 12.394 18.889 13.1273 17.1396C13.6203 15.9733 14.5747 15.0748 15.8199 14.6048C17.6846 13.9086 22.1092 14.0692 24.1698 14.0692C26.2304 14.0692 30.6614 13.9145 32.5197 14.6048C33.7586 15.0689 34.7131 15.9674 35.2124 17.1396C35.9519 18.895 35.7813 23.0603 35.7813 25.0001C35.7813 26.9399 35.9519 31.1111 35.2124 32.8605Z" fill="#633294"/>
</svg>
