<svg width="54" height="54" viewBox="0 0 54 54" fill="none" xmlns="http://www.w3.org/2000/svg">
<g filter="url(#filter0_d)">
<path d="M12.5 7L8 11.5L12.5 16.5L10 22L3 23V29L10 30L12.5 35.5L8 40L12.5 45L17.5 41.5L23 43L23.5 50H30.5L31.5 43L36 41.5L41 45L46 40L42.5 35.5L44.5 30L51 29V23L44.5 22L42.5 16.5L46 11.5L41 7L36 10.5L31.5 8.5L30.5 2.5H23.5L23 8.5L17.5 10.5L12.5 7Z" stroke="white" stroke-width="2"/>
</g>
<g filter="url(#filter1_d)">
<circle cx="27.5" cy="26.5" r="12.5" fill="white"/>
</g>
<path d="M35.1744 20.5476C33.314 16.4345 21.6861 14.1494 18.4302 23.7467L30.5233 35.629C32.6938 34.8673 36.5698 32.4299 37.5 27.4028H32.3837" stroke="#232323" stroke-width="2"/>
<path fill-rule="evenodd" clip-rule="evenodd" d="M17.2512 26C17.087 26.6674 17 27.365 17 28.083C17 32.8842 21.6988 37.5 26.5 37.5C27.3447 37.5 28.1362 37.3571 28.8672 37.0956L17.2512 26Z" fill="#232323"/>
<defs>
<filter id="filter0_d" x="0" y="0.5" width="54" height="53.5" filterUnits="userSpaceOnUse" color-interpolation-filters="sRGB">
<feFlood flood-opacity="0" result="BackgroundImageFix"/>
<feColorMatrix in="SourceAlpha" type="matrix" values="0 0 0 0 0 0 0 0 0 0 0 0 0 0 0 0 0 0 127 0"/>
<feOffset dy="1"/>
<feGaussianBlur stdDeviation="1"/>
<feColorMatrix type="matrix" values="0 0 0 0 0 0 0 0 0 0 0 0 0 0 0 0 0 0 0.25 0"/>
<feBlend mode="normal" in2="BackgroundImageFix" result="effect1_dropShadow"/>
<feBlend mode="normal" in="SourceGraphic" in2="effect1_dropShadow" result="shape"/>
</filter>
<filter id="filter1_d" x="13" y="13" width="29" height="29" filterUnits="userSpaceOnUse" color-interpolation-filters="sRGB">
<feFlood flood-opacity="0" result="BackgroundImageFix"/>
<feColorMatrix in="SourceAlpha" type="matrix" values="0 0 0 0 0 0 0 0 0 0 0 0 0 0 0 0 0 0 127 0"/>
<feOffset dy="1"/>
<feGaussianBlur stdDeviation="1"/>
<feColorMatrix type="matrix" values="0 0 0 0 0 0 0 0 0 0 0 0 0 0 0 0 0 0 0.25 0"/>
<feBlend mode="normal" in2="BackgroundImageFix" result="effect1_dropShadow"/>
<feBlend mode="normal" in="SourceGraphic" in2="effect1_dropShadow" result="shape"/>
</filter>
</defs>
</svg>
