<svg width="50" height="50" viewBox="0 0 50 50" fill="none" xmlns="http://www.w3.org/2000/svg">
<circle cx="25" cy="25" r="25" fill="white"/>
<path d="M34.2683 19.9844C34.2831 20.2031 34.2831 20.4219 34.2831 20.6406C34.2831 27.3125 29.4714 35 20.6769 35C17.9675 35 15.4506 34.1718 13.3334 32.7344C13.7183 32.7812 14.0884 32.7969 14.4882 32.7969C16.7238 32.7969 18.7818 32 20.4252 30.6406C18.3228 30.5938 16.561 29.1406 15.9539 27.1406C16.2501 27.1875 16.5461 27.2187 16.8571 27.2187C17.2864 27.2187 17.7158 27.1562 18.1155 27.0469C15.9243 26.5781 14.2809 24.5469 14.2809 22.0937V22.0313C14.9175 22.4063 15.6578 22.6406 16.4425 22.6719C15.1544 21.7656 14.3105 20.2187 14.3105 18.4687C14.3105 17.5312 14.5474 16.6719 14.9619 15.9219C17.316 18.9843 20.8545 20.9843 24.8224 21.2031C24.7483 20.8281 24.7039 20.4375 24.7039 20.0469C24.7039 17.2656 26.8359 15 29.4861 15C30.863 15 32.1066 15.6094 32.9802 16.5937C34.0609 16.375 35.0973 15.9531 36.0153 15.375C35.6599 16.5469 34.9049 17.5313 33.9129 18.1562C34.8753 18.0469 35.808 17.7656 36.6667 17.375C36.0154 18.375 35.201 19.2656 34.2683 19.9844V19.9844Z" fill="#633294"/>
</svg>
